<?xml version="1.0" standalone="no"?>
<!DOCTYPE svg PUBLIC "-//W3C//DTD SVG 20010904//EN"
 "http://www.w3.org/TR/2001/REC-SVG-20010904/DTD/svg10.dtd">
<svg version="1.0" xmlns="http://www.w3.org/2000/svg"
 width="626.000000pt" height="417.000000pt" viewBox="0 0 626.000000 417.000000"
 preserveAspectRatio="xMidYMid meet">
<metadata>
Created by potrace 1.16, written by Peter Selinger 2001-2019
</metadata>
<g transform="translate(0.000000,417.000000) scale(0.100000,-0.100000)"
fill="#000000" stroke="none">
<path d="M3615 3684 c-31 -26 -36 -26 -136 -8 -37 6 -37 6 -44 -36 -5 -32 -14
-46 -38 -60 -27 -17 -34 -18 -52 -6 -32 21 -137 29 -160 12 -12 -9 -28 -11
-45 -6 -28 8 -60 -4 -60 -22 0 -5 -13 -27 -30 -48 -16 -21 -30 -44 -30 -52 0
-7 -7 -24 -16 -37 -13 -18 -15 -36 -10 -87 6 -55 4 -65 -11 -71 -10 -4 -19 -1
-21 6 -2 6 -15 25 -29 41 -19 23 -33 30 -62 30 -20 0 -42 -5 -49 -12 -9 -9
-16 -8 -31 6 -18 16 -20 16 -56 -8 -21 -14 -41 -23 -46 -20 -5 2 -13 23 -19
45 -6 22 -18 43 -26 46 -21 8 -72 -16 -100 -46 -24 -25 -24 -25 -24 -4 0 26
-32 47 -59 38 -12 -4 -21 2 -30 21 l-12 27 -24 -23 c-21 -20 -28 -22 -50 -12
-14 6 -32 9 -40 6 -8 -4 -21 -1 -29 5 -8 7 -29 9 -54 5 -37 -6 -40 -4 -53 25
-11 24 -20 31 -42 31 -15 0 -42 7 -60 17 -31 16 -80 31 -124 37 -13 2 -28 8
-35 13 -15 12 -70 22 -143 27 -28 2 -60 9 -72 17 -19 11 -28 11 -58 0 -25 -9
-58 -11 -105 -6 -51 5 -70 4 -78 -7 -69 -84 -66 -83 -134 -83 l-63 0 1 -81 c1
-69 4 -84 23 -103 11 -11 21 -31 21 -43 0 -13 7 -36 15 -52 11 -21 12 -32 4
-42 -8 -10 -7 -25 6 -58 17 -43 17 -45 -6 -75 -13 -18 -32 -31 -44 -31 -32 0
-106 -60 -242 -195 l-121 -122 10 -47 c6 -31 6 -56 0 -75 -8 -22 -7 -34 5 -51
20 -28 12 -34 -22 -18 -26 12 -30 10 -60 -25 -18 -21 -35 -50 -38 -65 -3 -15
-22 -44 -41 -65 -25 -25 -36 -46 -36 -67 0 -17 3 -30 8 -30 4 0 16 -17 27 -37
11 -21 25 -42 32 -46 7 -4 20 -21 28 -37 23 -45 34 -36 29 25 -4 49 -3 55 14
55 10 0 22 -4 28 -10 5 -5 38 -10 73 -11 35 -1 68 -7 74 -14 8 -8 23 -9 50 -3
27 6 44 5 53 -3 21 -17 42 -4 46 28 3 26 6 28 48 28 25 0 48 -4 52 -9 5 -8 36
-14 91 -16 9 -1 17 -4 17 -8 0 -6 55 -8 135 -3 36 1 55 33 44 74 -6 20 -3 28
11 32 21 7 70 -4 70 -15 0 -15 162 -35 249 -31 18 1 39 -2 45 -7 10 -7 32 -9
39 -2 1 1 26 3 55 5 29 1 55 5 58 8 3 3 17 1 31 -4 20 -7 30 -6 44 7 16 14 19
15 19 2 0 -9 8 -14 23 -13 12 1 27 -2 34 -7 8 -6 13 -2 18 11 8 27 25 27 18 1
-3 -11 0 -20 6 -20 6 0 11 4 11 8 0 5 20 9 45 9 32 0 46 -5 50 -17 7 -23 44
-24 38 -1 -3 12 2 20 16 24 15 4 21 0 22 -11 0 -14 2 -13 8 2 5 14 10 16 15 7
6 -9 11 -9 21 -1 8 7 18 9 24 6 5 -3 12 0 14 6 4 8 8 4 12 -9 6 -19 13 -22 42
-19 19 3 43 12 52 20 20 18 35 21 26 6 -3 -5 1 -10 9 -10 9 0 16 9 16 20 0 11
4 20 10 20 5 0 7 -7 4 -15 -4 -10 0 -13 15 -10 14 2 21 -1 21 -11 0 -11 4 -12
19 -5 10 6 21 7 25 4 3 -3 6 2 7 13 0 18 1 18 9 -1 7 -17 9 -17 9 -2 1 10 9
17 22 17 15 0 19 -5 15 -16 -4 -12 -1 -14 14 -9 13 4 20 2 20 -7 0 -10 3 -9
10 2 5 8 10 11 10 6 0 -4 9 2 19 15 18 22 22 23 42 11 19 -12 21 -12 16 2 -4
10 -1 16 8 16 8 0 15 -7 15 -15 0 -22 28 -18 35 5 7 22 13 24 35 10 8 -5 11
-12 7 -17 -5 -4 -12 -1 -17 7 -8 13 -10 12 -10 -2 0 -10 -4 -18 -9 -18 -5 0
-11 -7 -14 -14 -4 -10 -1 -13 7 -10 8 3 17 1 20 -4 8 -13 57 -2 63 14 3 8 9
11 14 8 5 -3 9 2 9 11 0 9 5 13 10 10 6 -3 10 1 10 9 0 9 5 16 10 16 6 0 10
-7 10 -15 0 -8 4 -15 9 -15 4 0 6 11 4 24 -3 16 -10 23 -19 19 -20 -8 -17 14
4 29 10 7 21 20 24 29 5 14 26 17 123 18 64 0 121 4 126 7 5 3 47 8 92 10 107
6 131 9 144 17 6 4 33 5 61 3 27 -2 56 0 64 5 10 7 9 9 -4 9 -10 0 -18 4 -18
10 0 10 20 16 80 24 19 2 55 7 80 11 42 6 47 5 72 -24 25 -27 30 -29 58 -20
17 6 37 8 45 5 8 -3 15 -1 15 5 0 6 13 8 30 5 16 -2 32 -1 35 3 2 5 25 9 50
10 70 3 84 5 79 12 -2 3 24 7 58 8 34 1 64 5 67 9 8 10 71 12 71 2 0 -4 11 -5
25 -2 14 2 25 8 25 13 0 10 29 7 48 -5 7 -4 16 -5 19 -2 4 3 1 6 -5 6 -7 0
-12 5 -12 11 0 7 10 9 25 7 14 -3 25 -1 25 3 0 5 6 6 14 3 8 -3 17 -1 21 5 10
17 33 13 38 -6 4 -17 5 -17 6 0 1 16 21 25 21 10 0 -5 15 -8 34 -9 23 0 33 4
32 14 -1 8 5 17 12 19 6 3 12 -4 13 -14 0 -10 3 -13 6 -5 2 6 11 12 19 12 8 0
14 -6 14 -12 0 -9 3 -9 9 1 5 8 18 12 30 8 12 -3 19 -1 15 4 -3 5 0 9 6 9 16
0 72 -61 64 -69 -3 -3 -11 2 -18 11 -10 13 -15 15 -24 6 -9 -9 -12 -8 -12 5 0
10 -5 14 -15 11 -8 -4 -15 -12 -15 -19 0 -7 7 -15 15 -19 8 -3 15 -10 15 -16
0 -6 -4 -8 -10 -5 -5 3 -10 -3 -10 -13 0 -24 36 -36 44 -15 3 8 11 11 17 8 6
-4 9 -1 7 6 -1 8 2 15 7 16 6 1 9 -9 8 -22 -1 -17 3 -22 12 -18 8 2 13 15 12
26 -2 18 3 22 25 22 15 1 30 4 34 8 4 4 13 2 21 -5 10 -8 17 -8 25 0 19 19 38
14 48 -13 11 -29 34 -34 25 -6 -5 16 -1 20 22 19 49 -1 63 2 63 13 0 5 -4 7
-10 4 -5 -3 -10 -2 -10 4 0 13 17 23 22 12 4 -12 115 4 134 19 23 20 16 25
-36 25 -27 0 -50 -3 -50 -8 0 -4 -19 -7 -42 -7 -66 0 -88 -3 -88 -15 0 -14
-20 17 -20 33 0 6 9 12 19 12 11 0 22 -6 24 -12 4 -10 6 -10 6 0 1 6 10 12 21
12 11 0 20 5 20 11 0 6 -12 10 -27 9 -42 -3 -46 -1 -34 14 9 10 7 13 -6 13
-39 0 -53 3 -53 13 0 16 110 42 188 45 79 2 104 17 77 44 -12 12 -18 11 -46
-7 -26 -16 -37 -18 -55 -10 -13 6 -26 19 -29 30 -4 10 -14 19 -23 20 -9 1 -26
2 -37 3 -11 1 -25 3 -32 4 -6 0 -15 10 -18 21 -8 24 -22 25 -46 4 -17 -15 -22
-14 -65 10 -25 14 -61 26 -79 26 -18 0 -38 7 -45 15 -20 24 -50 19 -50 -9 0
-34 -16 -41 -47 -19 -14 10 -34 23 -44 29 -23 13 -59 58 -59 74 0 16 -55 70
-71 70 -7 0 -23 -10 -35 -21 -13 -12 -39 -23 -58 -24 -19 -2 -51 -16 -71 -31
-27 -20 -39 -24 -47 -16 -7 7 -24 12 -38 12 -16 0 -35 10 -48 25 -26 29 -91
35 -112 10 -18 -22 -33 -19 -65 14 -23 25 -27 36 -22 66 4 27 0 48 -19 82 -13
26 -22 54 -19 64 4 13 0 18 -17 21 -12 2 -28 14 -34 26 -20 41 -29 45 -68 31
-28 -10 -41 -11 -55 -2 -10 6 -34 14 -52 18 -37 7 -59 39 -59 85 0 14 -7 35
-15 47 -15 21 -14 23 20 37 45 19 46 47 3 77 -46 31 -58 48 -58 82 0 18 -10
39 -27 56 -16 15 -33 35 -39 46 -10 18 -15 19 -45 8 -22 -9 -37 -9 -43 -3 -19
19 -80 10 -111 -16z"/>
<path d="M5122 2443 c-6 -3 -10 -9 -7 -13 3 -5 12 -7 20 -3 8 3 15 0 15 -6 0
-9 -18 -10 -62 -6 -46 5 -59 4 -48 -4 8 -6 11 -12 5 -13 -16 -2 -96 -8 -165
-11 -36 -2 -70 -6 -76 -10 -13 -8 -217 -40 -261 -40 -18 -1 -33 -5 -33 -10 0
-5 16 -7 35 -4 39 6 48 -7 13 -17 -13 -4 -54 -10 -93 -13 -38 -3 -83 -12 -99
-20 -16 -8 -52 -16 -80 -19 -28 -2 -69 -8 -91 -14 -63 -17 -69 -18 -83 -19 -7
-1 -10 -6 -7 -12 4 -6 9 -8 12 -5 3 2 16 1 29 -4 13 -5 26 -6 28 -1 3 5 16 6
30 4 13 -3 27 0 30 6 9 14 66 14 66 0 0 -8 5 -8 15 1 8 7 15 9 15 5 0 -4 7 -2
15 5 8 7 15 9 15 4 0 -5 4 -4 8 2 5 8 23 9 55 4 26 -4 47 -3 47 1 0 4 51 7
113 5 71 -1 126 3 151 11 21 7 42 10 47 7 16 -9 49 -13 49 -5 0 4 19 6 43 5
23 -1 44 2 47 7 7 10 82 15 97 6 7 -4 15 -2 18 3 4 6 19 9 34 5 16 -3 101 3
190 15 89 11 164 20 166 20 3 0 5 10 5 23 0 33 26 65 57 69 14 2 29 9 31 17 3
10 0 12 -13 7 -10 -4 -22 -2 -25 5 -8 12 -75 15 -130 5 -122 -23 -173 -24
-195 -5 -11 9 -26 14 -33 12z"/>
</g>
</svg>
