<?xml version="1.0" standalone="no"?>
<!DOCTYPE svg PUBLIC "-//W3C//DTD SVG 20010904//EN"
 "http://www.w3.org/TR/2001/REC-SVG-20010904/DTD/svg10.dtd">
<svg version="1.0" xmlns="http://www.w3.org/2000/svg"
 width="960.000000pt" height="450.000000pt" viewBox="0 0 960.000000 450.000000"
 preserveAspectRatio="xMidYMid meet">

<g transform="translate(0.000000,450.000000) scale(0.100000,-0.100000)"
fill="#0000ff21" stroke="none">
<path d="M807 4472 c-32 -34 -34 -46 -7 -65 30 -21 92 -6 156 38 30 21 57 42
60 46 3 5 -37 9 -89 9 -89 0 -94 -1 -120 -28z"/>
<path d="M1060 4454 c-36 -25 -140 -100 -232 -167 l-166 -121 -104 3 c-56 1
-105 4 -107 6 -2 2 -18 41 -37 86 -39 96 -74 145 -119 166 -56 27 -68 14 -60
-62 6 -56 4 -66 -11 -72 -20 -7 -64 37 -64 65 0 30 -38 82 -61 82 -19 0 -20
-3 -14 -65 7 -63 7 -65 -16 -65 -12 0 -33 10 -46 22 l-23 21 0 -165 c0 -161 1
-166 20 -161 24 6 33 -13 34 -71 1 -39 3 -41 29 -39 17 1 37 13 49 28 12 15
33 38 47 51 48 45 67 27 63 -58 -3 -54 -2 -58 21 -63 70 -18 151 79 178 213
l13 62 90 0 c49 0 87 -2 85 -4 -2 -2 -43 -34 -92 -69 -48 -37 -82 -69 -76 -72
5 -4 36 13 67 37 31 24 74 55 94 68 21 14 38 28 38 33 0 4 6 7 14 7 8 0 16 4
18 8 7 19 347 257 354 249 5 -4 -14 -194 -20 -213 -3 -6 -39 -14 -82 -17 -97
-9 -175 -43 -204 -89 -39 -65 -19 -96 53 -83 65 13 84 -45 27 -79 -51 -30 -90
-67 -90 -86 0 -15 10 -20 48 -26 43 -6 61 -17 62 -37 0 -4 -21 -30 -46 -57
-57 -61 -57 -89 0 -105 59 -17 67 -35 59 -132 -6 -79 -5 -83 14 -83 16 0 27
15 48 65 35 80 54 89 100 45 41 -40 71 -36 61 8 -4 15 -10 49 -13 76 l-6 49
34 -6 c19 -3 49 -9 67 -13 29 -6 32 -4 32 17 0 13 -16 44 -35 68 -58 73 -42
105 39 78 48 -16 56 -14 56 15 0 12 -21 32 -60 56 -62 39 -73 52 -64 77 8 19
35 19 81 0 49 -21 63 -14 63 32 0 31 -8 44 -52 87 -29 28 -81 66 -115 84 -36
19 -63 40 -63 49 0 8 7 62 15 119 9 58 13 109 10 114 -3 6 -2 10 3 10 5 0 19
9 31 19 12 11 32 26 44 35 21 14 21 15 2 15 -11 0 -49 -20 -85 -45z"/>
<path d="M1440 4473 c-72 -37 -130 -93 -130 -125 0 -44 20 -51 102 -38 95 15
132 11 136 -16 4 -28 -21 -48 -112 -86 -83 -35 -104 -54 -92 -83 6 -16 16 -17
100 -11 79 6 96 5 110 -9 9 -9 16 -20 16 -24 0 -19 -45 -63 -98 -95 -74 -45
-96 -69 -87 -95 8 -26 18 -26 74 -1 91 42 116 20 105 -88 -5 -55 -3 -70 9 -81
25 -20 52 2 78 66 45 115 68 126 157 76 53 -30 82 -26 82 9 0 15 -21 43 -65
84 -49 46 -65 67 -65 88 0 38 23 42 95 19 66 -22 95 -17 95 16 0 20 -38 59
-118 121 -47 37 -53 45 -50 73 4 44 31 46 108 7 78 -39 104 -37 108 9 3 29 -3
40 -50 85 -31 30 -85 67 -130 89 -76 37 -78 37 -200 37 -115 0 -128 -2 -178
-27z"/>
<path d="M2058 4493 c12 -2 32 -2 45 0 12 2 2 4 -23 4 -25 0 -35 -2 -22 -4z"/>
<path d="M2208 4491 c31 -19 8 -55 -70 -109 -51 -35 -78 -60 -78 -72 0 -30 16
-32 71 -9 72 32 83 22 87 -74 2 -54 7 -77 17 -81 19 -7 52 29 60 63 3 15 14
41 25 59 24 40 51 41 116 7 36 -19 50 -22 60 -14 24 19 16 34 -46 92 -41 39
-60 64 -60 81 0 34 21 38 87 15 51 -17 59 -18 72 -4 12 12 13 19 5 33 -10 15
-33 17 -185 19 -100 2 -168 -1 -161 -6z"/>
<path d="M6180 4481 c0 -25 18 -39 77 -56 54 -16 89 -46 80 -69 -3 -8 -26 -18
-52 -22 -73 -10 -88 -39 -46 -88 44 -52 133 -67 249 -42 61 12 64 12 72 -8 5
-12 24 -59 43 -106 20 -47 31 -87 26 -89 -11 -3 -376 137 -397 153 -8 5 -21
11 -30 12 -10 1 -63 20 -119 43 -108 43 -123 47 -123 32 0 -5 45 -27 100 -48
55 -21 100 -40 100 -43 0 -3 -37 -15 -83 -26 l-84 -20 -33 64 c-44 84 -94 137
-147 152 -81 25 -112 -4 -77 -71 19 -38 15 -73 -9 -77 -10 -2 -45 13 -78 33
-86 53 -109 40 -85 -47 13 -43 -19 -53 -92 -26 -80 28 -92 22 -92 -45 0 -65
-6 -71 -97 -100 -54 -18 -68 -26 -68 -42 0 -17 8 -20 60 -23 100 -4 108 -8
100 -45 -11 -53 -11 -90 1 -94 6 -2 30 12 55 32 24 19 52 35 62 35 21 0 39
-42 32 -73 -3 -12 -1 -28 4 -35 16 -25 46 -7 73 43 46 85 88 96 88 21 0 -50
11 -69 36 -64 13 2 21 16 27 41 4 20 10 54 15 75 6 31 11 37 32 37 23 0 26 -5
34 -57 7 -51 11 -58 31 -58 31 0 83 56 96 105 6 22 16 75 23 119 l11 79 100
28 100 28 110 -43 c176 -71 409 -156 564 -207 86 -28 136 -49 125 -52 -11 -3
-53 -15 -95 -27 l-77 -22 -73 49 c-171 116 -306 156 -359 108 -28 -25 -13 -45
70 -94 72 -43 82 -58 54 -85 -21 -22 -49 -20 -138 9 -89 29 -109 31 -126 10
-18 -21 -7 -39 49 -82 52 -40 64 -70 35 -93 -12 -11 -28 -10 -87 3 -91 22
-136 22 -144 1 -7 -20 13 -40 74 -73 67 -36 70 -70 13 -154 -68 -102 -37 -139
59 -67 83 62 113 53 127 -41 10 -67 28 -83 58 -53 13 12 16 38 16 118 0 89 3
105 19 120 32 29 60 12 92 -59 16 -35 39 -71 51 -79 20 -14 24 -14 40 1 22 20
22 39 2 109 -8 29 -14 73 -12 96 3 40 5 43 32 43 26 0 33 -7 53 -50 60 -128
76 -143 114 -109 42 38 43 130 3 320 l-6 32 100 32 100 33 138 -37 c77 -21
221 -54 321 -74 101 -20 183 -40 183 -43 0 -4 -36 -30 -81 -59 l-80 -53 -37
38 c-60 62 -119 95 -172 95 -75 0 -89 -30 -40 -82 35 -36 36 -41 14 -59 -13
-11 -26 -10 -76 3 -87 24 -109 10 -68 -42 37 -48 16 -70 -62 -64 -64 6 -85
-14 -62 -58 23 -44 11 -70 -51 -112 -50 -33 -67 -58 -47 -69 4 -3 33 3 66 13
76 24 86 20 86 -41 0 -40 3 -49 18 -49 10 0 24 10 32 21 42 62 57 74 74 60 9
-7 20 -28 24 -45 6 -21 15 -32 30 -34 22 -3 24 0 37 79 11 69 56 74 70 8 8
-37 23 -46 43 -26 13 14 14 24 4 67 -21 91 22 125 57 45 11 -25 26 -45 34 -45
48 0 69 103 43 214 -9 38 -13 72 -8 75 5 3 33 21 63 40 30 19 66 46 81 59 l27
24 113 -15 c181 -25 240 -29 477 -36 l225 -6 -145 -64 c-79 -35 -173 -76 -209
-91 -77 -32 -592 -290 -770 -385 -69 -37 -138 -74 -155 -83 -48 -25 -258 -141
-275 -152 -39 -24 -111 -66 -176 -101 -78 -42 -170 -96 -223 -129 -32 -20 -43
-20 -203 -15 -94 3 -174 8 -179 11 -5 3 -9 29 -9 57 0 51 1 53 57 97 50 39
103 101 103 119 0 3 -4 12 -9 20 -8 12 -16 10 -45 -12 -66 -51 -87 -28 -36 39
45 59 36 97 -14 59 -24 -18 -56 -20 -56 -3 0 6 12 31 26 56 18 31 23 47 15 55
-7 7 -18 3 -37 -16 -15 -15 -31 -27 -36 -27 -5 0 -23 16 -41 35 -29 32 -57 46
-57 27 0 -4 4 -21 9 -38 12 -42 0 -58 -37 -51 -19 4 -34 1 -41 -7 -15 -18 3
-32 51 -41 65 -12 80 -65 19 -65 -39 0 -61 -9 -61 -25 0 -16 22 -25 60 -25 41
0 60 -10 60 -30 0 -14 -11 -20 -50 -25 -27 -4 -53 -11 -56 -17 -16 -26 70 -68
140 -68 25 0 26 -3 26 -55 0 -47 -3 -55 -19 -55 -29 0 -238 38 -316 57 l-70
18 3 60 c3 53 6 63 34 85 123 98 160 150 133 186 -10 15 -15 13 -47 -15 -69
-61 -101 -27 -44 46 57 73 46 104 -22 63 -56 -34 -70 -2 -27 62 44 65 29 87
-29 43 -18 -14 -37 -25 -42 -25 -5 0 -27 20 -49 45 -51 58 -73 51 -50 -15 21
-61 15 -70 -46 -70 -66 0 -61 -19 11 -43 64 -22 82 -34 78 -56 -2 -10 -22 -19
-58 -26 -69 -13 -82 -41 -23 -50 79 -12 98 -20 98 -40 0 -15 -8 -21 -30 -23
-16 -1 -45 -5 -62 -8 -81 -13 1 -82 109 -92 l60 -5 -5 -55 c-3 -30 -8 -56 -10
-58 -5 -5 -149 38 -244 72 -50 18 -73 32 -73 43 0 12 -2 13 -8 3 -9 -13 -13
-12 -256 82 -65 25 -124 46 -130 45 -10 -1 28 -20 84 -41 20 -7 22 -11 10 -19
-11 -8 -9 -9 9 -4 13 4 33 3 45 -3 42 -19 104 -42 261 -97 220 -76 207 -68
142 -86 l-55 -16 -63 40 c-101 64 -189 82 -189 39 0 -9 18 -27 40 -40 41 -23
52 -48 24 -59 -8 -3 -42 2 -75 12 -47 15 -62 16 -72 6 -9 -10 -4 -19 26 -43
62 -51 46 -73 -41 -55 -74 15 -89 -2 -33 -37 48 -30 51 -49 16 -96 -14 -19
-25 -40 -25 -47 0 -18 35 -16 50 3 39 46 73 38 84 -21 4 -21 13 -35 21 -35 16
0 18 11 15 72 -4 87 33 106 72 35 13 -23 30 -42 38 -42 15 0 17 16 9 100 -3
34 -1 40 17 43 17 2 25 -7 43 -47 22 -52 39 -62 61 -36 12 15 9 113 -5 175 -6
23 -2 26 54 43 l61 17 113 -30 c202 -53 433 -85 666 -93 l74 -2 -99 -57 c-54
-31 -157 -90 -228 -132 -70 -41 -133 -77 -139 -79 -6 -2 -6 -10 2 -25 11 -21
12 -21 94 27 144 85 470 273 542 313 39 21 77 43 85 48 31 20 171 100 175 100
2 0 50 26 107 59 57 32 132 73 168 91 36 18 67 36 70 40 3 4 38 24 79 44 40
19 79 40 85 44 25 20 228 123 232 119 3 -3 -17 -33 -43 -68 -49 -65 -147 -225
-178 -289 -14 -30 -26 -38 -80 -56 l-63 -20 -45 43 c-34 31 -54 43 -76 43 -35
0 -38 -6 -15 -39 25 -35 2 -50 -27 -17 -12 14 -31 26 -41 26 -22 0 -22 -4 -2
-34 18 -28 5 -42 -25 -26 -11 5 -29 10 -41 10 -17 0 -19 -3 -10 -19 19 -37 12
-51 -25 -51 -40 0 -44 -11 -12 -34 l22 -16 -32 -28 c-48 -41 -43 -54 14 -35
46 16 47 16 61 -5 19 -29 38 -28 58 3 20 30 40 32 49 5 10 -32 31 -23 48 21
17 43 32 44 47 3 25 -64 76 7 66 90 l-6 51 38 13 c20 7 45 15 54 18 13 5 5
-20 -31 -103 -27 -59 -59 -139 -72 -176 -21 -59 -31 -74 -76 -108 l-53 -40
-57 60 c-59 61 -95 79 -123 61 -13 -8 -11 -17 14 -63 26 -50 29 -77 6 -77 -4
0 -27 20 -51 45 -24 25 -49 45 -56 45 -24 0 -26 -29 -4 -65 26 -44 27 -75 4
-75 -17 0 -37 11 -97 54 -20 14 -30 16 -38 8 -9 -9 -5 -19 15 -40 40 -42 35
-59 -20 -75 -65 -19 -63 -40 3 -48 29 -4 57 -10 63 -13 6 -4 11 -29 11 -57 0
-65 21 -65 48 1 33 80 72 78 72 -2 0 -60 39 -48 54 17 10 41 33 75 51 75 12 0
15 -14 15 -60 0 -46 3 -60 15 -60 42 0 75 84 75 194 l0 65 45 31 c25 17 45 28
45 24 0 -4 -13 -50 -30 -103 -16 -53 -45 -159 -66 -236 -20 -79 -43 -144 -51
-148 -8 -5 -29 -22 -47 -37 l-32 -29 -59 30 c-60 30 -99 36 -125 19 -13 -9
-11 -14 13 -35 49 -44 29 -66 -33 -35 -52 27 -70 17 -35 -20 32 -34 21 -45
-42 -41 -49 3 -55 -9 -16 -37 22 -16 25 -22 15 -35 -7 -8 -26 -17 -43 -21 -35
-7 -35 -29 0 -34 32 -5 36 -27 12 -61 -38 -54 -25 -66 29 -26 39 29 53 31 70
10 23 -27 49 -18 56 20 9 49 28 62 51 36 28 -34 43 -26 43 22 0 64 18 76 52
35 26 -32 28 -32 45 -15 24 24 22 82 -5 137 l-22 45 37 32 c21 17 39 30 41 28
2 -1 -3 -28 -11 -59 -9 -31 -11 -56 -7 -56 5 0 15 28 23 63 53 224 127 483
179 630 l13 37 40 -26 c22 -15 44 -30 48 -34 4 -4 -6 -36 -23 -71 -32 -68 -39
-133 -16 -142 8 -3 31 12 54 39 23 24 46 44 52 44 23 0 22 -35 -3 -85 -15 -28
-27 -57 -27 -63 0 -24 37 -11 67 23 53 59 85 39 58 -38 -30 -85 -7 -120 34
-52 11 19 25 35 30 35 5 0 24 -18 41 -40 17 -22 36 -40 41 -40 12 0 11 42 -1
76 -15 40 -4 62 35 70 36 6 63 29 51 42 -4 4 -35 12 -69 17 -33 6 -62 16 -65
22 -2 8 16 21 43 33 34 15 46 25 43 37 -3 15 -13 17 -57 15 -71 -5 -101 4
-101 28 0 13 9 22 28 26 58 13 77 21 77 35 0 42 -93 46 -212 10 l-61 -19 -44
29 c-23 16 -47 30 -52 32 -27 9 161 382 284 565 99 147 75 130 415 290 267
126 393 182 555 249 74 30 144 59 155 64 11 4 88 33 170 64 83 30 174 65 203
76 29 12 55 19 58 17 2 -3 -6 -29 -20 -59 -49 -112 -118 -327 -166 -521 -28
-110 -50 -209 -50 -219 0 -10 -6 -23 -12 -29 -33 -27 -171 -130 -175 -130 -3
0 -31 16 -63 36 -31 19 -78 42 -104 49 -41 13 -52 13 -82 0 -43 -18 -43 -33 3
-71 67 -56 17 -88 -62 -39 -22 14 -48 25 -57 25 -29 0 -21 -35 13 -63 22 -18
30 -31 25 -43 -5 -14 -16 -16 -76 -10 -89 9 -100 -6 -45 -59 44 -41 38 -59
-24 -69 -41 -6 -75 -31 -66 -47 3 -4 24 -13 45 -19 51 -14 52 -34 5 -96 -39
-51 -42 -62 -20 -70 15 -6 53 14 90 48 35 33 66 34 90 4 35 -44 64 -33 86 34
10 30 19 56 19 56 0 1 8 5 17 8 12 5 25 -2 44 -25 36 -44 55 -34 64 33 9 76
14 88 35 88 12 0 28 -15 42 -40 28 -49 51 -51 79 -7 27 43 20 134 -16 208 -14
29 -25 54 -25 56 0 6 151 115 155 112 2 -3 0 -22 -5 -44 -15 -67 -49 -364 -56
-479 -7 -132 -8 -136 -20 -144 -5 -4 -33 -40 -63 -79 -29 -40 -55 -73 -58 -73
-3 0 -24 13 -47 28 -62 42 -176 94 -219 100 -46 6 -87 -13 -87 -41 0 -11 29
-49 65 -85 66 -67 76 -90 51 -111 -19 -16 -61 -5 -111 29 -54 36 -101 60 -119
60 -9 0 -18 -11 -22 -25 -5 -21 4 -36 50 -86 44 -47 56 -67 54 -88 -5 -40 -58
-40 -159 -1 -62 24 -84 28 -99 20 -33 -17 -23 -37 36 -75 47 -31 55 -39 52
-63 -2 -18 -14 -33 -36 -47 -62 -37 -96 -71 -89 -89 11 -27 35 -30 111 -13
111 26 116 23 143 -108 6 -30 13 -41 29 -43 32 -5 43 18 55 108 11 93 22 120
47 120 21 0 40 -29 58 -90 16 -53 34 -73 57 -64 24 9 37 59 37 140 0 92 11
124 44 124 28 0 40 -17 51 -70 19 -96 25 -110 49 -110 32 0 53 27 66 85 14 61
6 139 -26 272 l-25 102 53 71 53 71 7 -433 c6 -405 5 -434 -11 -453 -10 -11
-37 -48 -61 -82 -24 -35 -44 -63 -45 -63 -1 0 -22 7 -46 16 -24 8 -80 17 -124
20 -91 6 -147 -13 -153 -53 -3 -18 6 -26 47 -44 40 -17 51 -26 51 -44 0 -31
-17 -35 -92 -23 -107 19 -135 -12 -47 -51 77 -35 56 -70 -56 -88 -44 -7 -50
-11 -50 -32 0 -19 8 -27 40 -38 22 -7 43 -17 48 -22 15 -15 -10 -47 -58 -75
-62 -37 -63 -66 -1 -66 24 0 51 -3 60 -6 22 -8 20 -46 -5 -104 -40 -94 2 -108
62 -21 21 30 43 58 51 62 21 14 54 10 86 -8 45 -26 62 -7 62 69 0 61 12 98 32
98 6 0 26 -12 45 -26 50 -38 68 -27 58 39 -15 100 -12 132 11 135 13 2 36 -11
60 -32 21 -20 42 -36 46 -36 18 0 38 49 38 93 0 59 -23 104 -90 180 l-52 57
42 65 c45 69 68 94 67 73 -3 -89 5 -218 14 -218 11 0 11 25 -7 528 -5 132 -4
182 4 182 6 0 33 -19 59 -43 27 -23 64 -54 83 -69 l35 -27 -18 -28 c-72 -110
-95 -222 -58 -280 28 -45 55 -43 86 7 51 81 83 63 87 -47 2 -60 7 -78 21 -87
14 -9 22 -5 43 21 43 56 78 41 93 -40 14 -80 48 -98 91 -52 34 36 62 31 129
-25 33 -27 63 -50 66 -50 15 0 1 70 -20 105 -32 51 -32 73 0 81 21 5 25 12 25
44 0 33 -3 38 -32 46 -49 14 -50 52 -3 82 36 23 46 55 21 65 -8 3 -39 3 -70 0
-92 -9 -115 28 -46 73 42 28 50 56 18 62 -10 2 -44 -9 -77 -23 -67 -30 -95
-30 -99 2 -2 16 9 29 42 53 51 35 54 40 28 63 -43 39 -111 31 -241 -29 l-74
-34 -46 41 c-25 22 -70 59 -98 82 l-53 42 1 115 c1 171 14 438 21 446 7 7 176
-44 183 -56 2 -3 -3 -31 -11 -61 -8 -30 -17 -91 -21 -137 -7 -94 12 -156 51
-166 28 -7 48 16 75 89 25 68 46 95 73 95 34 0 42 -41 24 -120 -20 -88 -20
-124 -2 -139 23 -20 46 -1 81 68 38 77 56 95 84 86 29 -9 43 -64 36 -142 -6
-73 6 -115 37 -121 12 -2 20 8 28 40 6 24 14 54 18 68 4 14 17 29 30 35 21 9
22 15 22 125 0 104 -2 116 -20 128 -26 16 -26 44 0 67 15 13 20 31 20 67 0 26
-4 48 -8 48 -4 0 -34 -9 -66 -21 -67 -23 -124 -22 -140 3 -13 22 13 52 69 80
77 39 97 76 54 99 -58 31 -196 -15 -336 -112 -39 -27 -80 -49 -90 -49 -17 0
-183 46 -188 52 -5 5 15 200 31 313 16 113 65 374 84 448 35 134 130 427 173
531 l24 59 146 47 c80 27 169 54 196 61 43 11 51 17 51 36 0 13 -3 23 -8 23
-41 0 -532 -166 -785 -266 -76 -30 -145 -54 -153 -54 -8 0 -14 -4 -14 -8 0
-21 -77 -31 -251 -32 -148 -1 -463 15 -464 23 0 1 2 45 5 97 l5 94 44 30 c68
46 180 156 202 198 42 82 8 124 -57 71 -69 -55 -93 -66 -109 -53 -22 18 -9 57
36 112 46 55 64 91 56 112 -10 24 -39 19 -83 -14 -46 -34 -80 -39 -89 -10 -7
21 3 43 46 107 55 80 24 112 -51 53 -21 -16 -49 -30 -64 -30 -17 0 -33 10 -48
30 -18 25 -29 30 -64 30 l-42 0 14 -37 c27 -78 13 -94 -78 -86 -53 5 -58 4
-58 -14 0 -27 14 -37 80 -58 88 -28 110 -42 110 -71 0 -27 -30 -44 -78 -44
-15 0 -44 -5 -64 -11 -73 -20 -34 -62 67 -75 85 -10 105 -19 105 -48 0 -29
-40 -46 -110 -46 -25 0 -55 -6 -65 -14 -16 -12 -17 -17 -6 -44 10 -24 25 -36
66 -51 40 -15 181 -41 222 -41 5 0 3 -65 -3 -127 l-6 -60 -102 14 c-141 19
-236 37 -424 80 l-163 37 3 105 3 105 80 60 c100 75 191 168 211 215 21 51 11
101 -21 101 -13 0 -37 -12 -52 -26 -48 -45 -89 -74 -105 -74 -38 0 -47 58 -15
92 25 26 87 107 87 112 0 3 -93 6 -207 5 -158 0 -203 -3 -185 -11 29 -14 40
-55 20 -75 -9 -8 -46 -18 -84 -23 -90 -11 -104 -17 -104 -44 0 -30 29 -43 123
-56 94 -12 114 -22 112 -52 -2 -32 -39 -48 -110 -48 -109 -1 -142 -38 -82 -94
41 -39 126 -66 237 -75 l75 -6 -3 -100 c-2 -55 -4 -101 -6 -102 -1 -2 -125 37
-274 85 -195 62 -272 91 -272 102 0 8 -20 63 -44 121 l-44 107 68 66 c71 68
110 133 110 179 0 25 -3 27 -38 27 -21 0 -47 -7 -58 -15 -25 -19 -50 -19 -58
0 -4 13 -37 15 -206 15 -189 0 -200 -1 -200 -19z"/>
<path d="M5155 3350 c-3 -5 1 -26 10 -46 20 -48 20 -51 -12 -80 l-28 -26 38
-30 c43 -35 47 -53 12 -62 -38 -10 -30 -33 18 -48 53 -18 58 -48 10 -60 -40
-10 -42 -30 -5 -58 24 -20 35 -22 100 -16 58 5 72 3 72 -9 0 -7 5 -17 10 -20
7 -4 8 3 4 20 -5 22 0 33 29 63 42 45 69 95 61 116 -8 20 -17 20 -53 1 -26
-13 -41 -11 -41 5 0 4 13 23 30 41 16 19 30 38 30 43 0 8 -9 6 -62 -11 -21 -6
-25 26 -7 58 6 12 8 27 5 35 -5 13 -9 13 -28 0 -38 -27 -48 -20 -48 29 0 51
-19 61 -38 20 -16 -35 -38 -31 -64 10 -24 36 -33 42 -43 25z"/>
<path d="M9429 3295 c-57 -21 -113 -52 -182 -100 -59 -41 -68 -44 -94 -34 -29
11 -129 39 -140 39 -23 0 23 -21 85 -39 39 -12 72 -26 72 -31 0 -5 -6 -37 -14
-72 -15 -63 -19 -105 -17 -166 1 -38 41 -85 65 -76 8 3 27 35 42 70 28 66 56
97 79 87 24 -9 26 -35 9 -118 -19 -91 -15 -118 18 -113 15 2 31 22 55 70 37
73 56 87 84 62 16 -14 19 -32 19 -109 0 -70 4 -96 15 -105 23 -19 42 3 49 55
4 25 11 47 17 50 7 5 13 385 5 385 -1 0 -23 -7 -49 -16 -65 -22 -102 -16 -102
16 0 20 13 33 62 65 34 22 63 45 63 51 0 21 -37 44 -71 43 -19 0 -50 -6 -70
-14z"/>
<path d="M4883 2978 c3 -13 9 -33 12 -45 10 -30 -15 -31 -62 -2 -35 22 -77 19
-55 -3 14 -14 16 -45 2 -53 -5 -3 -24 1 -43 9 -42 17 -54 10 -59 -34 -3 -31
-7 -35 -50 -49 -65 -20 -63 -41 3 -41 l51 0 -7 -40 c-8 -45 -1 -48 35 -20 14
11 31 20 38 20 12 0 14 -6 16 -44 2 -32 24 -29 42 6 28 55 54 60 54 9 0 -15 3
-31 7 -34 13 -13 33 16 33 48 0 38 20 61 38 43 7 -7 12 -25 12 -40 0 -53 46
-26 69 41 6 19 11 49 11 67 0 21 6 37 18 43 14 9 15 10 1 11 -9 0 -24 18 -34
41 -24 52 -68 89 -107 89 -26 0 -30 -3 -25 -22z"/>
<path d="M2635 2958 c-2 -7 -6 -29 -7 -48 -4 -48 -29 -50 -78 -6 -46 41 -74
40 -63 -3 4 -14 7 -37 8 -51 0 -24 -2 -25 -72 -28 -106 -4 -99 -32 17 -72 l45
-15 0 -55 0 -55 40 2 c22 2 58 4 80 5 37 3 40 1 38 -22 -1 -14 -5 -37 -8 -52
-7 -25 -4 -28 16 -28 13 0 42 11 64 25 45 27 83 32 91 11 3 -8 -4 -33 -16 -57
-22 -41 -22 -43 -4 -57 48 -35 133 14 197 113 l39 63 89 -30 c49 -16 89 -33
89 -37 0 -3 -73 -42 -162 -86 -89 -44 -219 -113 -289 -153 l-127 -72 -108 7
-108 8 3 55 c3 69 -23 202 -47 244 -10 17 -29 37 -43 43 -21 11 -26 10 -40 -7
-9 -11 -22 -50 -29 -87 -13 -79 -25 -103 -48 -103 -37 0 -44 16 -51 114 -6 71
-12 101 -26 116 -10 11 -22 20 -26 20 -14 0 -32 -42 -46 -109 -15 -74 -26 -91
-58 -91 -32 0 -44 19 -60 98 -19 92 -30 119 -53 131 -33 17 -45 -2 -43 -69 1
-35 -4 -69 -10 -76 -17 -21 -54 -17 -109 11 -60 31 -76 31 -91 3 -11 -20 -6
-27 55 -84 84 -78 86 -100 21 -164 -84 -83 -40 -117 72 -55 45 24 76 35 97 33
45 -4 44 -33 -4 -97 -45 -62 -48 -76 -19 -91 22 -12 73 9 154 64 40 28 84 33
103 14 19 -19 16 -24 -48 -93 -33 -35 -60 -68 -60 -73 0 -17 37 -42 61 -42 49
0 133 54 222 140 48 48 87 91 87 97 0 28 36 38 128 35 50 -2 92 -6 92 -10 0
-4 -31 -25 -68 -47 -69 -41 -356 -232 -388 -259 -11 -8 -71 -53 -134 -99
l-115 -83 -108 5 -109 6 -27 71 c-51 130 -98 184 -160 184 -28 0 -31 -3 -31
-29 0 -16 4 -41 10 -55 22 -59 -37 -82 -62 -24 -36 86 -54 113 -73 113 -21 0
-24 -21 -14 -89 3 -19 -1 -32 -13 -39 -15 -10 -26 -3 -71 41 -52 51 -80 64
-90 40 -2 -7 -1 -22 4 -33 4 -11 8 -35 8 -52 1 -28 -3 -33 -21 -33 -13 0 -46
9 -74 19 -70 27 -86 15 -51 -38 15 -22 27 -46 27 -53 0 -19 -29 -34 -92 -48
-104 -23 -82 -70 33 -70 61 0 70 -3 88 -26 12 -15 21 -37 21 -50 0 -12 7 -29
15 -38 19 -19 57 -7 96 30 19 18 35 25 55 22 28 -3 29 -5 29 -53 0 -44 3 -50
23 -53 17 -3 35 10 70 48 37 40 54 51 73 48 23 -3 24 -6 21 -65 -4 -73 6 -83
68 -64 64 19 119 107 138 221 l8 45 89 2 90 3 -35 -30 c-19 -17 -59 -46 -87
-66 -29 -19 -53 -42 -53 -50 0 -17 5 -15 80 42 159 119 333 246 395 288 39 25
81 54 94 64 l24 17 -7 -70 c-3 -39 -9 -91 -12 -116 l-6 -45 -88 -11 c-132 -17
-210 -66 -213 -135 l-2 -33 60 -3 c33 -2 64 -7 68 -12 18 -17 -6 -52 -64 -91
-47 -31 -59 -45 -57 -62 2 -18 11 -23 43 -25 78 -7 83 -30 20 -98 -52 -57 -56
-80 -17 -95 81 -32 77 -26 77 -130 0 -117 15 -125 60 -31 40 83 54 91 98 52
19 -16 43 -30 52 -30 15 0 17 6 10 43 -15 85 -12 112 12 115 12 2 36 -4 54
-13 28 -15 33 -15 47 -2 13 14 12 19 -6 49 -12 19 -30 43 -42 53 -23 21 -27
63 -5 71 8 4 33 -1 55 -10 50 -20 56 -20 64 0 9 22 -6 38 -70 74 -43 24 -54
35 -54 55 0 34 22 41 70 21 52 -20 57 -20 70 4 25 48 -50 135 -167 193 -37 18
-63 38 -63 47 0 8 7 53 15 100 8 47 15 99 15 117 0 28 8 36 73 78 39 26 83 56
97 66 43 32 310 192 314 188 10 -11 54 -185 48 -190 -4 -3 -29 -14 -57 -24
-69 -24 -167 -80 -199 -112 -34 -34 -43 -70 -23 -91 14 -14 25 -14 99 -2 103
16 122 12 126 -21 4 -32 -8 -42 -98 -79 -107 -44 -135 -76 -89 -100 15 -9 39
-8 89 0 77 13 106 8 115 -19 10 -33 -7 -53 -91 -107 -81 -52 -107 -85 -85
-107 9 -9 24 -7 59 7 111 42 129 29 118 -85 -5 -52 -3 -69 9 -79 27 -22 53 -2
76 61 27 72 53 109 80 109 11 0 42 -11 69 -25 57 -29 85 -32 94 -9 9 24 10 23
-64 94 -51 49 -70 74 -70 93 0 36 24 40 97 16 72 -23 93 -20 93 14 0 24 -27
53 -112 121 -54 42 -71 82 -44 102 19 14 45 7 135 -34 55 -25 71 -20 71 26 0
29 -8 44 -47 81 -49 47 -166 113 -258 146 -27 10 -55 23 -61 29 -12 11 -69
195 -62 201 9 9 216 116 313 162 172 81 335 146 520 206 154 50 457 127 498
127 9 0 17 5 17 10 0 15 -27 12 -146 -15 -223 -50 -418 -110 -631 -194 l-131
-52 -106 37 -106 36 0 36 c0 118 -43 227 -90 227 -22 0 -26 -6 -31 -43 -3 -23
-11 -48 -18 -55 -21 -20 -48 24 -49 79 -2 75 -52 104 -52 30 0 -37 -21 -62
-44 -53 -9 4 -25 28 -38 54 -23 47 -54 67 -63 41z"/>
<path d="M5078 2873 c7 -3 16 -2 19 1 4 3 -2 6 -13 5 -11 0 -14 -3 -6 -6z"/>
<path d="M5390 2875 c0 -5 5 -17 10 -25 5 -8 10 -10 10 -5 0 6 -5 17 -10 25
-5 8 -10 11 -10 5z"/>
<path d="M7535 2864 c11 -8 29 -21 40 -28 20 -13 20 -14 -4 -56 -33 -59 -42
-105 -25 -127 13 -17 16 -16 47 20 55 63 90 40 47 -31 -40 -66 -18 -89 34 -35
32 34 37 36 51 23 13 -14 13 -21 -2 -68 -13 -39 -14 -55 -5 -64 8 -8 16 -2 32
26 12 20 26 36 30 36 4 0 22 -17 39 -37 25 -32 32 -35 41 -23 5 8 7 22 3 30
-3 8 -8 29 -11 47 -4 30 -1 32 37 44 54 16 54 39 0 39 -42 0 -79 14 -79 30 0
6 16 18 36 27 20 10 37 23 38 28 0 6 -26 11 -59 13 -66 3 -92 17 -74 38 6 7
26 16 45 20 42 8 53 23 29 41 -26 19 -83 16 -157 -7 l-63 -19 -37 24 c-41 27
-66 34 -33 9z"/>
<path d="M5770 2618 c0 -6 7 -19 16 -29 9 -10 14 -25 11 -33 -5 -12 -13 -12
-47 -4 -47 12 -59 5 -42 -22 20 -33 14 -40 -33 -40 l-46 0 7 -36 c6 -32 3 -38
-27 -64 -38 -32 -35 -46 6 -30 37 14 55 6 55 -25 0 -32 15 -32 36 0 21 32 31
32 46 0 15 -33 32 -27 38 15 6 42 26 50 41 16 18 -38 31 -32 28 14 -4 56 15
72 36 29 l18 -33 19 24 c15 19 18 33 13 69 -3 25 -7 55 -8 66 -2 20 -46 63
-84 84 -28 14 -83 14 -83 -1z"/>
<path d="M3430 2619 c0 -3 11 -43 25 -89 14 -46 24 -84 22 -85 -1 -1 -30 -12
-64 -25 -117 -42 -195 -104 -190 -150 2 -23 6 -25 47 -25 25 0 63 4 85 8 84
16 101 -45 22 -78 -115 -49 -127 -56 -127 -80 0 -29 24 -35 90 -23 71 13 100
5 100 -27 0 -27 -18 -45 -94 -97 -60 -40 -76 -62 -58 -80 10 -10 19 -10 45 1
96 39 119 23 110 -75 -5 -54 -3 -65 11 -70 23 -9 51 19 64 65 14 46 48 91 68
91 8 0 37 -12 65 -26 97 -49 108 -3 18 79 -45 43 -60 62 -57 79 4 30 36 34 93
13 89 -34 102 11 23 77 -87 73 -100 87 -96 111 4 32 34 33 99 2 67 -33 89 -29
89 16 0 55 -84 120 -241 184 l-82 33 -24 79 c-21 65 -43 113 -43 92z"/>
<path d="M5989 2593 c-13 -16 -12 -17 4 -4 16 13 21 21 13 21 -2 0 -10 -8 -17
-17z"/>
<path d="M1456 2355 c-11 -8 -16 -15 -10 -15 5 0 18 7 28 15 11 8 16 15 10 15
-5 0 -18 -7 -28 -15z"/>
<path d="M1268 2283 c7 -3 16 -2 19 1 4 3 -2 6 -13 5 -11 0 -14 -3 -6 -6z"/>
<path d="M1220 2209 c0 -5 5 -7 10 -4 6 3 10 8 10 11 0 2 -4 4 -10 4 -5 0 -10
-5 -10 -11z"/>
<path d="M1146 2165 c-11 -8 -15 -15 -9 -15 6 0 16 7 23 15 16 19 11 19 -14 0z"/>
<path d="M7257 2115 c15 -24 29 -42 32 -40 4 5 -46 85 -54 85 -2 0 8 -20 22
-45z"/>
<path d="M1076 2115 c-11 -8 -15 -15 -9 -15 6 0 16 7 23 15 16 19 11 19 -14 0z"/>
<path d="M7358 2064 c-3 -3 -19 -6 -34 -6 -22 -1 -39 -13 -69 -49 -42 -50 -56
-86 -48 -119 7 -25 23 -25 56 0 23 18 27 19 35 4 5 -9 5 -31 -2 -55 -12 -46
-4 -57 28 -40 32 18 48 6 46 -33 -3 -56 -3 -57 42 -54 38 3 44 0 65 -32 25
-35 51 -47 44 -20 -2 8 -6 32 -8 53 -6 37 -6 37 31 37 44 0 45 9 6 38 -16 13
-30 28 -30 35 0 7 14 18 30 24 42 16 37 30 -12 40 -51 10 -63 38 -24 53 42 15
30 30 -24 30 -39 0 -50 4 -50 16 0 8 14 20 30 25 35 13 37 20 12 42 -18 16
-111 25 -124 11z"/>
<path d="M5147 1243 c-4 -3 -7 -23 -7 -43 0 -21 -7 -43 -15 -50 -16 -13 -23
-9 -88 42 -37 30 -54 14 -37 -36 18 -55 3 -67 -76 -64 -35 1 -67 -1 -71 -6
-10 -10 47 -56 70 -56 10 0 32 -7 48 -16 29 -14 30 -18 27 -67 l-3 -52 45 3
c116 8 115 8 113 -13 -1 -11 -5 -35 -9 -52 -5 -29 -4 -33 15 -33 12 0 39 11
61 25 40 26 84 33 95 15 3 -5 -3 -27 -15 -49 -26 -52 -25 -67 3 -75 63 -15
148 44 198 139 13 25 27 45 31 45 16 0 178 -62 177 -68 0 -4 -89 -51 -197
-104 -108 -54 -238 -122 -288 -152 -78 -47 -97 -54 -130 -50 -21 2 -70 5 -108
7 l-69 2 -4 80 c-3 92 -19 178 -39 217 -18 35 -56 60 -77 52 -16 -6 -37 -61
-37 -98 0 -45 -24 -97 -47 -102 -38 -10 -50 9 -52 88 -3 97 -16 145 -42 153
-27 9 -35 -3 -54 -89 -20 -89 -30 -106 -60 -106 -32 0 -51 30 -64 102 -19 104
-54 159 -83 130 -6 -6 -10 -38 -9 -71 2 -94 -24 -109 -117 -66 -66 31 -89 31
-98 3 -5 -18 5 -32 60 -83 84 -79 86 -97 15 -166 -51 -49 -56 -64 -27 -83 13
-8 38 0 107 33 74 35 93 41 110 31 31 -16 26 -39 -19 -94 -49 -59 -50 -90 -5
-93 20 -2 48 9 85 32 83 53 122 69 140 58 32 -20 22 -50 -36 -113 -63 -67 -64
-85 -11 -103 48 -16 127 30 237 140 54 54 102 106 106 115 8 15 21 16 109 10
l100 -7 -73 -45 c-94 -58 -345 -229 -514 -350 l-133 -95 -105 3 -105 3 -28 79
c-44 124 -111 195 -170 182 -16 -3 -18 -13 -15 -70 3 -61 1 -67 -18 -70 -15
-2 -25 6 -36 30 -49 105 -54 113 -73 113 -18 0 -20 -6 -17 -62 3 -60 2 -63
-21 -63 -14 0 -40 17 -67 45 -53 54 -87 58 -81 10 9 -76 7 -90 -16 -93 -12 -2
-40 6 -62 17 -45 23 -50 24 -70 12 -11 -7 -8 -18 14 -55 31 -53 25 -69 -29
-85 -20 -6 145 -10 451 -10 265 -1 483 2 485 7 8 17 348 256 355 248 3 -2 -1
-53 -9 -113 l-13 -108 -69 -8 c-137 -15 -139 -25 -7 -26 109 -1 122 1 106 13
-19 13 -19 17 -2 125 9 61 14 118 11 126 -4 8 -2 15 4 15 5 0 29 16 53 35 24
19 48 35 52 35 8 0 62 36 83 56 33 30 287 175 293 168 7 -8 53 -157 55 -177 1
-4 -21 -16 -49 -26 -142 -51 -245 -124 -245 -173 0 -44 22 -53 94 -40 94 18
133 16 141 -7 12 -39 1 -47 -147 -110 -27 -11 -48 -25 -48 -30 0 -8 87 -11
271 -11 l271 0 -51 40 c-56 45 -73 82 -47 108 15 15 20 14 68 -7 94 -41 105
-44 122 -38 10 4 16 18 16 37 0 65 -115 148 -330 238 l-46 19 -28 97 c-17 57
-25 100 -20 105 22 21 312 166 454 226 255 110 656 235 833 260 42 7 66 19 55
30 -7 7 -266 -54 -411 -96 -142 -42 -323 -106 -436 -154 -60 -25 -67 -26 -95
-13 -17 8 -66 26 -108 39 l-78 24 0 70 c0 38 -5 88 -11 109 -12 43 -62 100
-82 94 -6 -3 -16 -28 -21 -56 -6 -38 -13 -52 -25 -52 -28 0 -41 22 -41 70 0
48 -19 88 -38 76 -5 -3 -13 -24 -17 -45 -11 -65 -50 -64 -76 2 -20 52 -46 77
-62 60z"/>
<path d="M5940 884 c0 -5 11 -44 25 -87 l24 -78 -27 -10 c-174 -64 -250 -126
-228 -185 7 -17 15 -17 143 2 36 6 43 3 53 -16 17 -31 -8 -54 -85 -80 -70 -23
-99 -48 -89 -75 6 -16 16 -17 84 -11 90 7 110 2 110 -28 0 -26 -22 -47 -102
-99 -38 -24 -58 -44 -58 -57 0 -31 17 -33 75 -9 74 31 85 21 85 -78 l0 -74 27
3 c23 3 31 13 53 68 34 84 55 93 129 56 41 -21 56 -25 67 -15 24 19 16 34 -46
92 -42 39 -60 62 -60 80 0 35 18 38 85 15 53 -18 59 -18 74 -3 21 21 10 37
-72 104 -55 44 -67 59 -67 82 0 38 27 38 104 3 67 -30 86 -27 86 17 0 25 -9
41 -41 70 -45 42 -153 101 -232 128 l-52 18 -25 81 c-22 73 -40 111 -40 86z"/>
</g>
</svg>
