<?xml version="1.0" standalone="no"?>
<!DOCTYPE svg PUBLIC "-//W3C//DTD SVG 20010904//EN"
 "http://www.w3.org/TR/2001/REC-SVG-20010904/DTD/svg10.dtd">
<svg version="1.0" xmlns="http://www.w3.org/2000/svg"
 width="360.000000pt" height="273.000000pt" viewBox="0 0 360.000000 273.000000"
 preserveAspectRatio="xMidYMid meet">

<g transform="translate(0.000000,273.000000) scale(0.100000,-0.100000)"
fill="#008cff90" stroke="red">
<path d="M1885 2519 c-316 -54 -646 -91 -615 -69 11 8 -26 9 -130 5 -80 -4
-152 -9 -162 -11 -9 -3 -19 0 -23 6 -3 6 4 10 17 11 13 0 91 9 173 19 l150 18
-195 -5 c-198 -5 -353 -26 -542 -74 -42 -10 -89 -19 -104 -19 -21 0 -25 -3
-17 -11 9 -9 34 -7 97 6 48 9 91 15 97 13 9 -3 -105 -32 -209 -54 -13 -2 -20
-8 -18 -13 3 -5 46 0 96 10 180 37 450 68 538 62 45 -3 81 -7 79 -9 -2 -2 -34
-8 -72 -13 -37 -6 -71 -15 -75 -21 -4 -6 -69 -18 -146 -26 -152 -15 -159 -17
-287 -46 -84 -19 -106 -32 -69 -41 11 -3 7 -7 -15 -12 -50 -12 -41 -31 12 -27
37 3 45 1 45 -13 0 -13 6 -16 23 -12 139 34 601 114 872 151 242 33 295 38
270 27 -11 -5 -130 -26 -265 -46 -271 -41 -453 -72 -430 -74 8 -1 152 19 320
43 303 44 670 92 785 101 105 9 20 -11 -133 -30 -125 -16 -141 -20 -128 -33
13 -13 26 -13 113 2 157 27 168 28 161 20 -5 -4 -47 -13 -95 -21 -49 -8 -104
-16 -124 -20 l-36 -5 18 -49 c15 -38 19 -76 19 -165 0 -105 2 -115 18 -110 9
3 30 8 45 12 21 5 25 9 16 15 -19 11 -3 15 126 28 l110 11 43 43 42 43 -41 -4
c-29 -3 -40 -1 -35 7 4 6 27 11 52 11 28 0 43 4 39 10 -3 6 2 10 12 10 10 0
31 9 48 20 21 14 32 16 42 8 10 -8 54 -4 164 12 82 12 153 20 156 17 6 -7 3
-8 -162 -42 -165 -35 -155 -30 -155 -74 l0 -37 184 21 c102 12 183 18 181 14
-3 -3 -33 -9 -67 -13 -35 -4 -116 -17 -180 -29 l-118 -22 0 -51 0 -51 43 7
c23 4 76 11 117 14 102 8 60 -8 -62 -24 l-98 -13 0 -42 0 -43 68 4 c74 5 61
-8 -20 -20 l-48 -7 0 -65 c0 -35 1 -64 3 -64 8 0 596 91 622 96 20 4 27 3 20
-4 -11 -11 -306 -79 -485 -112 -143 -26 -163 -30 -158 -35 4 -4 274 40 423 69
90 18 107 19 85 7 -19 -11 -282 -66 -385 -81 -106 -14 -125 -19 -125 -29 0 -9
-4 -10 327 49 218 39 320 49 210 20 -70 -18 -50 -24 37 -9 63 10 76 15 76 30
0 11 7 19 16 19 14 0 16 7 11 39 -5 42 5 51 61 51 12 0 22 5 22 10 0 6 -16 8
-37 5 -21 -2 -67 -7 -103 -10 -97 -8 -53 11 60 25 128 17 150 32 35 25 -49 -3
-112 -8 -140 -12 -41 -5 -48 -3 -38 8 6 8 11 19 10 24 -1 6 8 11 20 13 20 3
103 85 103 101 0 4 -71 -5 -157 -21 -87 -15 -167 -27 -178 -27 -18 0 -18 1 -3
9 9 6 92 22 185 36 139 22 171 30 185 48 9 11 16 23 16 26 -2 20 4 30 19 30 9
0 45 5 81 11 46 8 61 14 53 22 -9 9 -25 7 -60 -6 -55 -19 -77 -21 -85 -8 -11
18 6 40 42 55 l37 15 -52 -5 c-36 -4 -53 -2 -53 5 0 6 15 11 33 11 17 1 46 7
62 16 22 11 24 13 8 10 -30 -5 -29 2 8 47 30 36 31 42 26 103 -6 85 -15 94
-74 83 -27 -5 -51 -5 -56 0 -5 5 12 12 40 16 45 7 46 8 23 17 -14 6 -64 11
-112 11 -56 0 -88 4 -88 11 0 14 -128 20 -144 7 -32 -26 -346 -35 -346 -10 0
4 21 11 48 16 l47 8 -75 6 c-41 4 -172 7 -290 7 -167 0 -240 -4 -325 -19z
m-150 -58 c-6 -5 -44 -12 -85 -15 l-75 -5 55 13 c67 17 118 20 105 7z m-35
-51 c0 -6 -27 -9 -62 -9 -58 2 -60 2 -23 9 61 11 85 11 85 0z m730 -50 c-20
-13 -50 -13 -50 0 0 6 15 10 33 10 24 0 28 -3 17 -10z m-160 -57 c-66 -14
-275 -24 -262 -12 14 14 120 27 222 27 l105 0 -65 -15z m789 -267 c-2 -2 -67
-15 -144 -29 -95 -17 -155 -22 -185 -18 l-45 7 35 8 c63 15 349 42 339 32z
m-419 -146 c0 -5 -15 -10 -32 -9 -31 1 -32 1 -8 9 35 11 40 11 40 0z"/>
<path d="M2725 2520 c-4 -6 7 -10 27 -10 25 0 29 3 18 10 -19 13 -37 13 -45 0z"/>
<path d="M1328 2503 c12 -2 30 -2 40 0 9 3 -1 5 -23 4 -22 0 -30 -2 -17 -4z"/>
<path d="M1404 2290 c-182 -26 -433 -67 -559 -90 -225 -41 -294 -46 -176 -14
33 10 59 19 57 21 -2 2 -41 -3 -86 -11 -45 -9 -84 -16 -87 -16 -3 0 -2 -7 1
-16 4 -11 -1 -18 -15 -21 -16 -5 -20 -12 -17 -41 3 -35 1 -36 -42 -49 -41 -11
-36 -12 60 -7 58 4 102 4 99 0 -3 -3 -54 -13 -115 -22 -60 -8 -113 -20 -119
-26 -7 -7 -4 -8 10 -5 11 3 73 9 137 13 116 6 117 6 111 -15 -4 -14 -16 -24
-35 -28 -29 -6 -116 -95 -99 -101 8 -3 262 39 331 54 20 4 22 3 13 -7 -10 -10
-157 -39 -325 -63 -32 -5 -48 -12 -48 -22 0 -8 -7 -14 -16 -14 -13 0 -13 -2 2
-17 17 -17 17 -18 -4 -21 -22 -3 -30 -18 -12 -24 18 -6 -1 -45 -28 -56 -25
-11 -24 -11 16 -9 42 3 55 -6 26 -17 -9 -3 -25 -6 -37 -6 -12 -1 -35 -7 -52
-15 l-30 -14 28 6 c28 5 28 5 15 -17 -7 -13 -21 -32 -30 -42 -21 -21 -24 -97
-7 -147 l11 -32 61 7 c44 5 58 4 53 -5 -4 -6 -26 -11 -49 -11 -33 0 -39 -3
-29 -12 9 -9 46 -13 112 -13 68 0 100 -4 100 -11 0 -13 236 -31 247 -20 4 3
-20 6 -52 6 -32 0 -56 2 -53 5 5 6 261 35 288 33 8 -1 43 0 78 0 l62 2 0 54
c0 49 -2 55 -22 59 l-23 4 23 2 c21 1 22 5 22 86 l0 85 -27 -5 c-98 -18 -297
-44 -301 -41 -5 6 40 17 201 52 l127 28 0 38 c0 21 -3 38 -7 38 -5 0 -84 -9
-176 -21 -92 -11 -173 -18 -180 -16 -7 2 15 7 48 11 51 6 220 36 293 53 19 4
22 12 22 55 l0 49 -32 -6 c-67 -12 -179 -21 -183 -15 -3 4 37 13 88 19 130 17
127 16 127 61 l0 39 -62 3 -63 3 63 9 62 9 0 63 c0 54 -3 64 -17 64 -10 0
-151 -20 -313 -45 -299 -46 -327 -49 -318 -40 9 10 401 94 598 130 107 19 168
32 135 29 -62 -6 -324 -49 -503 -82 -57 -11 -100 -16 -95 -11 24 24 587 121
802 139 64 5 148 14 186 20 39 5 75 10 81 10 7 0 14 7 18 15 7 20 12 21 -370
-35z m-384 -320 c0 -5 -17 -10 -37 -9 -34 1 -35 2 -13 9 36 11 50 11 50 0z
m-120 -111 c0 -10 -134 -28 -245 -33 l-100 -5 120 23 c112 22 225 29 225 15z"/>
<path d="M1530 2266 c-148 -19 -168 -23 -132 -29 46 -8 49 -27 4 -27 -15 0
-36 -7 -46 -15 -11 -8 -35 -15 -54 -15 l-34 0 68 -65 c68 -64 70 -65 116 -62
26 2 45 0 42 -5 -3 -4 -15 -8 -27 -8 -12 0 -28 -4 -35 -9 -27 -16 13 -32 70
-27 l53 5 -53 -11 c-29 -6 -51 -15 -50 -20 5 -13 -3 -13 141 2 l127 14 0 106
c0 69 5 122 15 149 17 49 40 47 -205 17z"/>
<path d="M928 2243 c7 -3 16 -2 19 1 4 3 -2 6 -13 5 -11 0 -14 -3 -6 -6z"/>
<path d="M3165 2070 l-40 -19 40 5 c59 8 76 14 70 25 -9 13 -24 10 -70 -11z"/>
<path d="M2018 1986 l-138 -19 0 -49 c0 -45 2 -48 23 -44 12 3 62 10 112 16
49 6 90 12 91 13 0 1 13 24 28 50 15 27 26 49 24 50 -1 2 -65 -6 -140 -17z"/>
<path d="M3188 2003 c7 -3 16 -2 19 1 4 3 -2 6 -13 5 -11 0 -14 -3 -6 -6z"/>
<path d="M1610 1969 c-30 -5 -74 -11 -97 -14 l-42 -6 16 -37 c8 -20 18 -40 22
-45 4 -4 43 -3 87 3 130 17 124 14 124 65 0 51 -1 51 -110 34z"/>
<path d="M2260 1940 c-9 -16 -8 -20 5 -20 8 0 15 9 15 20 0 11 -2 20 -5 20 -2
0 -9 -9 -15 -20z"/>
<path d="M1320 1880 c0 -52 3 -54 48 -42 l22 7 -21 43 c-29 59 -49 56 -49 -8z"/>
<path d="M2234 1899 c-3 -6 0 -15 7 -20 11 -7 10 -9 -3 -9 -10 0 -18 -2 -18
-4 0 -2 -3 -11 -6 -20 -4 -11 0 -16 14 -16 39 0 52 11 52 46 0 27 -4 34 -19
34 -11 0 -23 -5 -27 -11z"/>
<path d="M438 1893 c6 -2 18 -2 25 0 6 3 1 5 -13 5 -14 0 -19 -2 -12 -5z"/>
<path d="M1983 1872 l-113 -15 0 -145 0 -145 73 7 c109 10 104 6 112 91 4 41
12 99 20 130 12 55 12 55 -9 50 -15 -4 -13 -1 7 10 15 9 27 20 27 25 0 6 -1 9
-2 9 -2 -1 -54 -9 -115 -17z"/>
<path d="M1660 1859 c-18 -8 -21 -12 -11 -18 8 -6 -13 -11 -58 -16 -64 -6 -71
-9 -66 -26 4 -11 12 -65 18 -121 12 -96 14 -103 37 -108 25 -6 25 -6 3 -12
-13 -3 -23 -13 -23 -22 0 -19 40 -20 115 -2 l50 11 2 163 c2 161 2 162 -20
161 -12 0 -33 -5 -47 -10z"/>
<path d="M428 1853 c7 -3 16 -2 19 1 4 3 -2 6 -13 5 -11 0 -14 -3 -6 -6z"/>
<path d="M393 1793 c-18 -2 -33 -8 -33 -14 0 -13 40 -10 75 6 32 14 23 16 -42
8z"/>
<path d="M1320 1759 l0 -42 40 7 c22 3 40 2 40 -3 0 -4 -18 -11 -40 -15 l-40
-6 0 -75 c0 -41 4 -75 10 -75 5 0 32 5 60 11 48 10 51 13 46 37 -3 15 -10 66
-16 115 l-12 87 -44 0 -44 0 0 -41z"/>
<path d="M2181 1722 c-6 -41 -10 -76 -8 -78 7 -8 76 9 71 17 -3 5 4 9 15 9 19
0 21 6 21 64 l0 64 -44 0 -44 -1 -11 -75z"/>
<path d="M385 1753 c-73 -15 -71 -14 -52 -24 12 -7 29 -4 59 10 41 18 38 24
-7 14z"/>
<path d="M2925 1633 c-133 -27 -305 -58 -492 -89 l-33 -5 0 -65 0 -66 63 2
c185 8 248 -11 83 -25 -154 -13 -160 -23 -11 -23 141 1 293 22 490 68 44 10
95 22 114 25 21 5 29 10 22 15 -7 4 -53 -1 -103 -12 -50 -10 -93 -16 -95 -14
-5 5 10 10 118 35 48 12 95 21 105 21 12 0 15 3 8 10 -6 6 -44 3 -110 -10
-259 -50 -506 -72 -579 -52 -26 8 -21 9 38 14 41 4 75 12 86 22 12 11 53 19
137 26 189 16 384 58 384 81 0 6 -7 9 -15 5 -8 -3 -15 -2 -15 3 0 5 14 11 30
15 49 9 37 28 -14 21 -38 -6 -45 -4 -48 11 -3 18 -11 17 -163 -13z"/>
<path d="M2170 1616 c0 -9 7 -16 16 -16 17 0 14 22 -4 28 -7 2 -12 -3 -12 -12z"/>
<path d="M2248 1613 c6 -2 18 -2 25 0 6 3 1 5 -13 5 -14 0 -19 -2 -12 -5z"/>
<path d="M2623 1603 c9 -2 23 -2 30 0 6 3 -1 5 -18 5 -16 0 -22 -2 -12 -5z"/>
<path d="M2473 1587 c-40 -5 -73 -14 -73 -18 0 -5 12 -6 28 -3 15 3 61 11 102
18 87 16 49 18 -57 3z"/>
<path d="M2193 1583 c-18 -2 -33 -8 -33 -13 0 -11 101 -1 115 11 9 9 -20 10
-82 2z"/>
<path d="M1995 1565 c-5 -2 -36 -6 -67 -10 -45 -5 -56 -9 -51 -21 4 -10 14
-13 32 -10 14 3 50 8 79 11 35 5 52 11 52 21 0 13 -21 17 -45 9z"/>
<path d="M2218 1547 c-32 -5 -58 -13 -58 -17 0 -7 110 7 119 15 10 10 -6 11
-61 2z"/>
<path d="M1320 1422 l0 -108 25 1 c15 0 39 15 61 38 20 20 41 37 46 37 5 0 7
20 3 48 -13 97 -9 92 -75 92 l-60 0 0 -108z"/>
<path d="M1650 1519 c-25 -5 -55 -12 -68 -15 -42 -9 -12 -25 36 -19 85 11 102
16 102 31 0 16 -6 16 -70 3z"/>
<path d="M1917 1512 c-39 -3 -39 -3 -32 -40 12 -71 12 -71 53 -61 48 11 75 11
68 0 -3 -4 -29 -11 -57 -15 -35 -5 -49 -10 -42 -17 6 -6 31 -7 61 -3 46 6 50
9 56 36 3 17 6 41 6 53 0 21 -4 23 -42 18 -24 -2 -51 -6 -60 -8 -10 -2 -18 1
-18 5 0 4 27 11 60 15 114 13 70 27 -53 17z m88 -62 c-11 -5 -40 -9 -65 -9
-34 0 -40 3 -25 9 11 5 40 9 65 9 34 0 40 -3 25 -9z"/>
<path d="M2195 1511 c-39 -6 -40 -7 -47 -56 -4 -27 -5 -51 -3 -53 2 -3 34 -1
70 3 l65 7 0 54 c0 60 3 58 -85 45z"/>
<path d="M1625 1471 c-55 -7 -51 2 -47 -106 2 -42 4 -45 30 -45 68 0 77 12
101 118 10 47 16 45 -84 33z"/>
<path d="M1171 1363 c-14 -3 -57 -13 -95 -23 l-71 -19 98 0 c97 -1 97 -1 97
24 0 14 -1 24 -2 24 -2 -1 -14 -4 -27 -6z"/>
</g>
</svg>
